<svg width="183" height="65" viewBox="0 0 183 65" fill="none" xmlns="http://www.w3.org/2000/svg">
<path d="M45.201 33.3905C45.2293 31.1852 46.3856 29.1479 48.2644 27.9929C47.0738 26.2924 45.1509 25.2527 43.076 25.1879C40.8929 24.9587 38.7767 26.4941 37.6642 26.4941C36.5303 26.4941 34.8175 25.2106 32.9732 25.2486C30.5465 25.327 28.339 26.6733 27.1583 28.7947C24.6442 33.1478 26.5195 39.5451 28.9279 43.0637C30.1328 44.7867 31.5411 46.7112 33.3839 46.6429C35.187 46.5682 35.8605 45.4931 38.0371 45.4931C40.1934 45.4931 40.8253 46.6429 42.7054 46.5995C44.6403 46.5682 45.8593 44.869 47.022 43.1297C47.8878 41.902 48.554 40.5452 48.996 39.1094C46.6979 38.1374 45.2036 35.8857 45.201 33.3905Z" fill="white"/>
<path d="M41.6514 22.8723C42.7064 21.6059 43.2262 19.978 43.1003 18.3345C41.4885 18.5038 39.9997 19.2741 38.9305 20.492C37.8746 21.6936 37.3398 23.2656 37.4436 24.8617C39.077 24.8786 40.6279 24.1453 41.6514 22.8723Z" fill="white"/>
<path fill-rule="evenodd" clip-rule="evenodd" d="M61.8427 42.2815H67.9961L69.4725 46.6449H72.1233L66.2949 30.5015H63.587L57.7586 46.6449H60.365L61.8427 42.2815ZM67.3575 40.268H62.4799L64.8857 33.1866H64.9531L67.3575 40.268Z" fill="white"/>
<path fill-rule="evenodd" clip-rule="evenodd" d="M79.7977 46.7703C82.7519 46.7703 84.7096 44.4204 84.7096 40.7629C84.7096 37.1154 82.7405 34.7541 79.7533 34.7541C78.2162 34.7046 76.7763 35.5041 76.0057 36.8349H75.9612V34.8774H73.6227V50.5408H76.0386V44.7111H76.0945C76.8323 46.0503 78.2707 46.8501 79.7977 46.7703ZM79.1159 36.8133C80.9948 36.8133 82.2263 38.38 82.2263 40.7629C82.2263 43.1673 80.9948 44.7225 79.1159 44.7225C77.2701 44.7225 76.0284 43.1343 76.0284 40.7629C76.0284 38.413 77.2701 36.8133 79.1159 36.8133Z" fill="white"/>
<path fill-rule="evenodd" clip-rule="evenodd" d="M92.752 46.7703C95.7061 46.7703 97.6638 44.4204 97.6638 40.7629C97.6638 37.1154 95.6948 34.7541 92.7075 34.7541C91.1704 34.7046 89.7305 35.5041 88.9599 36.8349H88.9154V34.8774H86.577V50.5408H88.9929V44.7111H89.0488C89.7866 46.0503 91.225 46.8501 92.752 46.7703ZM92.0703 36.8133C93.9492 36.8133 95.1805 38.38 95.1805 40.7629H95.1807C95.1807 43.1673 93.9492 44.7225 92.0703 44.7225C90.2243 44.7225 88.9828 43.1343 88.9828 40.7629C88.9828 38.413 90.2243 36.8133 92.0703 36.8133Z" fill="white"/>
<path d="M106.224 42.1471C106.403 43.7479 107.959 44.7991 110.084 44.7991C112.12 44.7991 113.585 43.7479 113.585 42.3044C113.585 41.0514 112.701 40.3011 110.609 39.7869L108.517 39.2829C105.553 38.5669 104.177 37.1805 104.177 34.931C104.177 32.1456 106.604 30.2324 110.051 30.2324C113.462 30.2324 115.8 32.1456 115.879 34.931H113.44C113.294 33.3199 111.963 32.3475 110.016 32.3475C108.07 32.3475 106.738 33.3314 106.738 34.7634C106.738 35.9047 107.589 36.5763 109.67 37.0904L111.448 37.5271C114.76 38.3104 116.137 39.6409 116.137 42.0022C116.137 45.0224 113.731 46.914 109.905 46.914C106.325 46.914 103.907 45.0669 103.751 42.1469L106.224 42.1471Z" fill="white"/>
<path d="M121.352 32.0898V34.8752H123.59V36.7884H121.352V43.277C121.352 44.285 121.8 44.7547 122.784 44.7547C123.05 44.75 123.315 44.7314 123.579 44.6988V46.6006C123.136 46.6833 122.687 46.7207 122.237 46.7122C119.854 46.7122 118.925 45.8172 118.925 43.5347V36.7884H117.213V34.8752H118.925V32.0898H121.352Z" fill="white"/>
<path fill-rule="evenodd" clip-rule="evenodd" d="M130.469 34.7314C127.067 34.7314 124.886 37.0586 124.886 40.7618C124.886 44.4751 127.046 46.7921 130.469 46.7921C133.892 46.7921 136.052 44.4752 136.052 40.7618C136.052 37.0584 133.881 34.7314 130.469 34.7314ZM130.469 36.7221C132.426 36.7221 133.59 38.2214 133.59 40.7618C133.59 43.3122 132.426 44.8002 130.469 44.8002C128.511 44.8002 127.348 43.3122 127.348 40.7618C127.348 38.2329 128.511 36.7221 130.469 36.7221Z" fill="white"/>
<path d="M138.044 34.8773H140.348V36.8806H140.404C140.725 35.591 141.907 34.7033 143.235 34.754C143.514 34.7531 143.79 34.7834 144.062 34.8442V37.104C143.711 36.9965 143.345 36.9472 142.977 36.958C142.267 36.9292 141.58 37.2122 141.096 37.7328C140.612 38.2535 140.379 38.9596 140.46 39.6659V46.6471H138.044V34.8773Z" fill="white"/>
<path fill-rule="evenodd" clip-rule="evenodd" d="M150.133 46.791C152.796 46.791 154.877 45.3247 155.202 43.188H152.907C152.467 44.2801 151.362 44.9533 150.189 44.8434C149.31 44.8758 148.46 44.529 147.854 43.8912C147.248 43.2533 146.946 42.3859 147.024 41.5097V41.3637H155.336V40.536C155.336 36.9674 153.288 34.7305 150.032 34.7305C146.721 34.7305 144.585 37.1248 144.585 40.8165C144.585 44.4968 146.71 46.791 150.133 46.791ZM152.916 39.6733H147.033C147.03 38.8788 147.346 38.1162 147.909 37.5552C148.472 36.9943 149.235 36.6814 150.029 36.6862C150.818 36.6692 151.577 36.9819 152.126 37.549C152.673 38.1161 152.961 38.886 152.916 39.6733Z" fill="white"/>
<path fill-rule="evenodd" clip-rule="evenodd" d="M64.9125 19.4168C64.2054 18.6702 63.2009 18.2799 62.1752 18.3535H59.3735V26.1105H62.1752C64.4859 26.1105 65.8252 24.6859 65.8252 22.2079C65.9545 21.1877 65.6196 20.1633 64.9125 19.4168ZM62.0407 25.0134H60.5782V19.4497H62.0407C62.7698 19.4093 63.4787 19.6967 63.9738 20.2335C64.4688 20.7703 64.698 21.5003 64.5988 22.2236C64.7058 22.95 64.4799 23.6861 63.9837 24.2273C63.4873 24.7685 62.7736 25.0572 62.0407 25.0134Z" fill="white"/>
<path fill-rule="evenodd" clip-rule="evenodd" d="M68.4849 20.5579C67.5893 21.1137 67.0861 22.1292 67.1866 23.1785C67.0843 24.2289 67.5868 25.2462 68.4833 25.8032C69.3797 26.3602 70.5146 26.3602 71.4109 25.8032C72.3073 25.2462 72.81 24.2289 72.7077 23.1785C72.808 22.1292 72.3049 21.1137 71.4094 20.5579C70.5138 20.0022 69.3804 20.0022 68.4849 20.5579ZM69.9512 21.167C70.9515 21.167 71.5216 21.909 71.5216 23.1778C71.5216 24.4518 70.9515 25.1932 69.9512 25.1932C68.9469 25.1932 68.3821 24.4569 68.3821 23.1778C68.3821 21.909 68.9469 21.167 69.9512 21.167Z" fill="white"/>
<path d="M80.0464 26.1077H78.848L77.6382 21.7964H77.5468L76.342 26.1077H75.1549L73.5414 20.2539H74.7132L75.7618 24.7207H75.8481L77.0516 20.2539H78.16L79.3634 24.7207H79.4548L80.4985 20.2539H81.6536L80.0464 26.1077Z" fill="white"/>
<path d="M83.0121 20.256H84.1242V21.186H84.2105C84.5108 20.5013 85.2123 20.0824 85.9574 20.143C86.5344 20.0997 87.0997 20.321 87.4939 20.7445C87.8881 21.1681 88.0682 21.7479 87.9836 22.3202V26.1097H86.8283V22.6104C86.8283 21.6697 86.4196 21.2019 85.5651 21.2019C85.1738 21.1837 84.7941 21.3372 84.5253 21.6223C84.2566 21.9075 84.126 22.2957 84.1673 22.6853V26.1099H83.0121V20.256Z" fill="white"/>
<path d="M89.8219 17.9688H90.9771V26.1077H89.8219V17.9688Z" fill="white"/>
<path fill-rule="evenodd" clip-rule="evenodd" d="M93.8808 20.5589C92.9851 21.1147 92.4819 22.1302 92.5822 23.1794C92.48 24.2298 92.9828 25.2474 93.8792 25.8043C94.7757 26.3612 95.9105 26.3612 96.807 25.8043C97.7035 25.2474 98.2062 24.2298 98.104 23.1794C98.2043 22.1302 97.7011 21.1147 96.8054 20.5589C95.9098 20.0032 94.7765 20.0032 93.8808 20.5589ZM95.3468 21.1678C96.3472 21.1678 96.9172 21.9099 96.9172 23.1788C96.9172 24.4528 96.3472 25.1942 95.3468 25.1942C94.3427 25.1942 93.7777 24.4579 93.7777 23.1788C93.7777 21.9099 94.3427 21.1678 95.3468 21.1678Z" fill="white"/>
<path fill-rule="evenodd" clip-rule="evenodd" d="M101.5 22.705C100.108 22.7913 99.323 23.3987 99.323 24.4524C99.3249 24.952 99.5383 25.4276 99.9099 25.7613C100.282 26.0951 100.777 26.2561 101.274 26.2043C101.983 26.2371 102.655 25.8861 103.033 25.2852H103.124V26.1079H104.236V22.1083C104.236 20.8717 103.408 20.1411 101.941 20.1411C100.613 20.1411 99.6671 20.786 99.5491 21.7915H100.667C100.796 21.3777 101.243 21.1408 101.888 21.1408C102.677 21.1408 103.086 21.49 103.086 22.1083V22.6135L101.5 22.705ZM103.086 23.4629V23.9522C103.061 24.3253 102.885 24.6721 102.599 24.9134C102.314 25.1547 101.942 25.2696 101.57 25.2319C100.942 25.2319 100.485 24.9254 100.485 24.3985C100.485 23.8824 100.85 23.6082 101.657 23.5543L103.086 23.4629Z" fill="white"/>
<path fill-rule="evenodd" clip-rule="evenodd" d="M108.182 20.1568C106.703 20.1568 105.752 21.3286 105.752 23.1782C105.752 25.0324 106.693 26.2042 108.182 26.2041C108.937 26.2321 109.645 25.8386 110.02 25.1828H110.112V26.1077H111.219V17.9688H110.063V21.1838H109.977C109.628 20.5226 108.929 20.1225 108.182 20.1568ZM108.509 25.167C107.531 25.167 106.945 24.4199 106.945 23.1782H106.945C106.945 21.9469 107.537 21.1947 108.509 21.1947C109.477 21.1947 110.085 21.9634 110.085 23.1834C110.085 24.4091 109.483 25.167 108.509 25.167Z" fill="white"/>
<path fill-rule="evenodd" clip-rule="evenodd" d="M117.301 20.5589C116.405 21.1147 115.902 22.1301 116.003 23.1794C115.9 24.2297 116.403 25.2472 117.299 25.8041C118.196 26.3611 119.331 26.3611 120.227 25.8041C121.123 25.2472 121.626 24.2297 121.524 23.1794C121.624 22.1301 121.121 21.1147 120.225 20.5589C119.33 20.0032 118.197 20.0032 117.301 20.5589ZM118.767 21.1678C119.768 21.1678 120.338 21.9099 120.338 23.1788C120.338 24.4528 119.768 25.1942 118.767 25.1942C117.763 25.1942 117.198 24.4579 117.198 23.1788C117.198 21.9099 117.763 21.1678 118.767 21.1678Z" fill="white"/>
<path d="M123.073 20.256H124.185V21.186H124.272C124.572 20.5013 125.274 20.0824 126.019 20.143C126.596 20.0997 127.161 20.321 127.555 20.7445C127.949 21.1681 128.13 21.7479 128.045 22.3202V26.1097H126.89V22.6104C126.89 21.6697 126.481 21.2019 125.626 21.2019C125.235 21.1837 124.855 21.3372 124.587 21.6223C124.318 21.9075 124.187 22.2957 124.229 22.6853V26.1099H123.073V20.256Z" fill="white"/>
<path d="M134.569 18.7964V20.2804H135.837V21.2536H134.569V24.2636C134.569 24.8769 134.822 25.1453 135.397 25.1453C135.544 25.1448 135.691 25.1359 135.837 25.1187V26.0809C135.63 26.1181 135.42 26.1379 135.209 26.1399C133.924 26.1399 133.413 25.6881 133.413 24.5594V21.2535H132.483V20.2804H133.413V18.7964H134.569Z" fill="white"/>
<path d="M137.419 17.9688H138.564V21.1947H138.656C138.97 20.504 139.684 20.0846 140.441 20.146C141.014 20.1148 141.572 20.341 141.962 20.763C142.352 21.1851 142.533 21.7589 142.457 22.3283V26.1077H141.3V22.6134C141.3 21.6783 140.865 21.2047 140.048 21.2047C139.647 21.1718 139.251 21.3179 138.966 21.6041C138.682 21.8902 138.539 22.2872 138.574 22.6889V26.1077H137.419L137.419 17.9688Z" fill="white"/>
<path fill-rule="evenodd" clip-rule="evenodd" d="M146.653 26.2219C147.797 26.3459 148.866 25.6325 149.189 24.5284L148.078 24.5283C147.801 25.0255 147.25 25.3058 146.686 25.2379C146.249 25.2429 145.831 25.0636 145.535 24.7443C145.237 24.425 145.089 23.9954 145.126 23.5609V23.4962H149.26V23.0932C149.26 21.255 148.277 20.1422 146.648 20.1422C145.865 20.1354 145.119 20.4686 144.6 21.0554C144.083 21.6421 143.845 22.4247 143.949 23.2004C143.842 23.9739 144.082 24.7552 144.602 25.3371C145.123 25.919 145.873 26.2426 146.653 26.2219ZM148.084 22.644H145.128C145.123 22.2404 145.28 21.8517 145.566 21.5662C145.851 21.2806 146.24 21.1225 146.644 21.1276C147.042 21.1184 147.425 21.2779 147.7 21.5667C147.974 21.8555 148.114 22.2468 148.084 22.644Z" fill="white"/>
<rect x="0.5" y="0.5" width="182" height="64" rx="9.5" stroke="white"/>
</svg>
