<svg width="34" height="34" viewBox="0 0 34 34" fill="none" xmlns="http://www.w3.org/2000/svg">
<path d="M0 0H34V34H0V0Z" fill="#3F9C35"/>
<path d="M0 0H34V22.6645H0V0Z" fill="#ED2939"/>
<path d="M0 0H34V11.3355H0V0Z" fill="#00B9E4"/>
<path d="M15.8578 22.1C18.6745 22.1 20.9578 19.8167 20.9578 17C20.9578 14.1834 18.6745 11.9 15.8578 11.9C13.0412 11.9 10.7578 14.1834 10.7578 17C10.7578 19.8167 13.0412 22.1 15.8578 22.1Z" fill="white"/>
<path d="M16.9933 21.25C19.3406 21.25 21.2433 19.3472 21.2433 17C21.2433 14.6528 19.3406 12.75 16.9933 12.75C14.6461 12.75 12.7433 14.6528 12.7433 17C12.7433 19.3472 14.6461 21.25 16.9933 21.25Z" fill="#ED2939"/>
<path d="M21.5289 14.1644L22.0668 15.6918L23.5277 14.9945L22.8371 16.4554L24.3645 17L22.8371 17.5445L23.5277 19.0054L22.0668 18.3082L21.5289 19.8355L20.9844 18.3082L19.5234 19.0054L20.2207 17.5445L18.6934 17L20.2207 16.4554L19.5234 14.9945L20.9844 15.6918L21.5289 14.1644Z" fill="white"/>
</svg>
