<svg width="63" height="63" viewBox="0 0 63 63" fill="none" xmlns="http://www.w3.org/2000/svg">
<path d="M55.4495 23.6848C57.2022 29.0695 57.09 34.8876 55.1309 40.2006C53.1719 45.5137 49.4803 50.012 44.6515 52.9699C39.8227 55.9278 34.1383 57.1729 28.5152 56.5043C22.892 55.8358 17.658 53.2926 13.6574 49.2849C9.65678 45.2772 7.12276 40.0388 6.4641 34.4145C5.80543 28.7902 7.06052 23.108 10.0269 18.2844C12.9933 13.4609 17.4981 9.77713 22.8146 7.82744C28.1311 5.87774 33.9493 5.77576 39.3309 7.53794L36.0297 10.836C35.847 11.0155 35.6832 11.214 35.532 11.4187C31.2231 10.549 26.7487 11.0892 22.7705 12.9592C18.7923 14.8293 15.5216 17.9301 13.442 21.8029C11.3625 25.6757 10.5846 30.115 11.2233 34.4641C11.8621 38.8133 13.8835 42.8414 16.9888 45.9528C20.0941 49.0641 24.1182 51.0935 28.4661 51.7408C32.814 52.3881 37.2548 51.6189 41.1317 49.547C45.0086 47.475 48.1157 44.2104 49.9936 40.2359C51.8715 36.2614 52.4204 31.788 51.5592 27.4774C51.7747 27.3245 51.977 27.1538 52.164 26.9671L55.4463 23.6848H55.4495ZM46.9287 28.35C47.605 31.6674 47.1942 35.1145 45.7574 38.1801C44.3205 41.2458 41.9341 43.7668 38.9518 45.3695C35.9695 46.9722 32.5501 47.5712 29.2006 47.0778C25.8511 46.5843 22.7497 45.0247 20.3563 42.63C17.9629 40.2354 16.4048 37.1333 15.9131 33.7835C15.4214 30.4337 16.0221 27.0147 17.6264 24.0332C19.2306 21.0517 21.7529 18.6665 24.8192 17.2312C27.8856 15.796 31.3329 15.387 34.65 16.065V20.9349C32.299 20.2331 29.7811 20.3355 27.4949 21.226C25.2087 22.1164 23.2848 23.744 22.0279 25.8511C20.771 27.9582 20.2528 30.4244 20.5555 32.8591C20.8581 35.2939 21.9643 37.5581 23.6988 39.2934C25.4333 41.0286 27.6971 42.1357 30.1317 42.4394C32.5663 42.7431 35.0327 42.226 37.1403 40.97C39.248 39.7139 40.8764 37.7908 41.7678 35.5049C42.6593 33.2191 42.7628 30.7013 42.0619 28.35H46.9287ZM31.4937 36.225C32.2183 36.2254 32.9333 36.0591 33.5834 35.739C34.2335 35.4189 34.8013 34.9535 35.2428 34.3789C35.6843 33.8044 35.9878 33.1359 36.1297 32.4253C36.2716 31.7147 36.2481 30.981 36.0612 30.2809L41.0445 25.2945L41.139 25.2H48.825C49.032 25.2004 49.237 25.1599 49.4283 25.081C49.6197 25.0021 49.7936 24.8862 49.9401 24.7401L56.2401 18.4401C56.4609 18.2198 56.6114 17.9389 56.6724 17.633C56.7334 17.3271 56.7022 17.01 56.5828 16.7219C56.4633 16.4337 56.261 16.1875 56.0015 16.0145C55.742 15.8415 55.4369 15.7494 55.125 15.75H47.25V7.87499C47.2499 7.56372 47.1576 7.25945 46.9848 7.0006C46.8119 6.74175 46.5662 6.53993 46.2787 6.42062C45.9912 6.30131 45.6748 6.26986 45.3695 6.33024C45.0641 6.39062 44.7835 6.54013 44.563 6.75989L38.263 13.0599C38.1163 13.2062 37.9999 13.38 37.9204 13.5713C37.841 13.7626 37.8 13.9678 37.8 14.175V21.861C37.7676 21.8916 37.7361 21.9231 37.7055 21.9555L32.7222 26.9325C32.0215 26.7445 31.287 26.7202 30.5754 26.8616C29.8639 27.003 29.1944 27.3062 28.6188 27.7478C28.0433 28.1893 27.577 28.7574 27.2562 29.4081C26.9354 30.0588 26.7686 30.7745 26.7687 31.5C26.7687 32.7531 27.2665 33.955 28.1526 34.8411C29.0387 35.7272 30.2405 36.225 31.4937 36.225Z" fill="#230F0F"/>
</svg>
