<svg width="18" height="24" viewBox="0 0 18 24" fill="none" xmlns="http://www.w3.org/2000/svg">
<path d="M10.5 3V4.62422C14.7563 5.33906 18 9.04219 18 13.5V21C18 21.8297 17.3297 22.5 16.5 22.5C15.6703 22.5 15 21.8297 15 21V13.5C15 10.7063 13.0875 8.35313 10.5 7.6875V21C10.5 21.8297 9.82969 22.5 9 22.5C8.17031 22.5 7.5 21.8297 7.5 21V7.6875C4.9125 8.35313 3 10.7063 3 13.5V21C3 21.8297 2.32828 22.5 1.5 22.5C0.671719 22.5 0 21.8297 0 21V13.5C0 9.04219 3.24328 5.33906 7.5 4.62422V3C7.5 2.17172 8.17031 1.5 9 1.5C9.82969 1.5 10.5 2.17172 10.5 3Z" fill="#232E57"/>
</svg>
