<svg width="183" height="65" viewBox="0 0 183 65" fill="none" xmlns="http://www.w3.org/2000/svg">
<path d="M66.9314 21.2383C66.9314 22.1983 66.6869 23.0383 66.0758 23.6383C65.3425 24.3583 64.4869 24.7183 63.3869 24.7183C62.2869 24.7183 61.4314 24.3583 60.6981 23.6383C59.9647 22.9183 59.5981 22.0783 59.5981 20.9983C59.5981 19.9183 59.9647 19.0783 60.6981 18.3583C61.4314 17.6383 62.2869 17.2783 63.3869 17.2783C63.8758 17.2783 64.3647 17.3983 64.8536 17.6383C65.3425 17.8783 65.7092 18.1183 65.9536 18.4783L65.3425 19.0783C64.8536 18.4783 64.2425 18.2383 63.3869 18.2383C62.6536 18.2383 61.9203 18.4783 61.4314 19.0783C60.8203 19.5583 60.5758 20.2783 60.5758 21.1183C60.5758 21.9583 60.8203 22.6783 61.4314 23.1583C62.0425 23.6383 62.6536 23.9983 63.3869 23.9983C64.2425 23.9983 64.8536 23.7583 65.4647 23.1583C65.8314 22.7983 66.0758 22.3183 66.0758 21.7183H63.3869V20.8783H66.9314C66.9314 20.8783 66.9314 21.1183 66.9314 21.2383Z" fill="white" stroke="white" stroke-width="0.2"/>
<path d="M72.5555 18.2399H69.2555V20.5199H72.3111V21.3599H69.2555V23.6399H72.5555V24.5999H68.2778V17.3999H72.5555V18.2399Z" fill="white" stroke="white" stroke-width="0.2"/>
<path d="M76.5899 24.5999H75.6121V18.2399H73.5343V17.3999H78.6676V18.2399H76.5899V24.5999Z" fill="white" stroke="white" stroke-width="0.2"/>
<path d="M82.2092 24.5999V17.3999H83.1869V24.5999H82.2092Z" fill="white" stroke="white" stroke-width="0.2"/>
<path d="M87.3416 24.5999H86.3639V18.2399H84.2861V17.3999H89.2972V18.2399H87.2194V24.5999H87.3416Z" fill="white" stroke="white" stroke-width="0.2"/>
<path fill-rule="evenodd" clip-rule="evenodd" d="M96.2677 24.7183C97.3677 24.7183 98.2232 24.3583 98.9565 23.6383C99.6899 22.9183 100.057 22.0783 100.057 20.9983C100.057 19.9183 99.6899 19.0783 98.9565 18.3583C98.2232 17.6383 97.3677 17.2783 96.2677 17.2783C95.1677 17.2783 94.3121 17.6383 93.5788 18.3583C92.8454 19.0783 92.4788 19.9183 92.4788 20.9983C92.4788 22.0783 92.8454 22.9183 93.5788 23.6383C94.3121 24.3583 95.1677 24.7183 96.2677 24.7183ZM96.2688 23.8765C95.5354 23.8765 94.8021 23.5165 94.3132 23.0365C93.7021 22.5565 93.4576 21.8365 93.4576 20.9964C93.4576 20.1564 93.8243 19.4364 94.3132 18.9564C94.8021 18.3564 95.5354 18.1164 96.2688 18.1164C97.0021 18.1164 97.7354 18.4764 98.2243 18.9564C98.8354 19.4364 99.0799 20.1564 99.0799 20.9964C99.0799 21.8365 98.7132 22.5565 98.2243 23.0365C97.7354 23.6365 97.0021 23.8765 96.2688 23.8765Z" fill="white"/>
<path d="M98.9565 23.6382L99.043 23.723L98.9565 23.6382ZM98.9565 18.3582L99.043 18.2734L98.9565 18.3582ZM93.5788 18.3582L93.4923 18.2734L93.5788 18.3582ZM93.5788 23.6382L93.4923 23.723L93.5788 23.6382ZM94.3132 23.0364L94.4002 22.9509L94.3896 22.9426L94.3132 23.0364ZM94.3132 18.9563L94.4002 19.0417L94.4086 19.0313L94.3132 18.9563ZM98.2243 18.9563L98.1374 19.0417L98.148 19.05L98.2243 18.9563ZM98.2243 23.0364L98.1374 22.9509L98.129 22.9614L98.2243 23.0364ZM98.8701 23.5533C98.1598 24.2508 97.3353 24.5982 96.2677 24.5982V24.8382C97.4 24.8382 98.2866 24.4656 99.043 23.723L98.8701 23.5533ZM99.9343 20.9982C99.9343 22.0465 99.5805 22.8559 98.8701 23.5533L99.043 23.723C99.7993 22.9806 100.179 22.11 100.179 20.9982H99.9343ZM98.8701 18.4431C99.5805 19.1405 99.9343 19.95 99.9343 20.9982H100.179C100.179 19.8864 99.7993 19.0159 99.043 18.2734L98.8701 18.4431ZM96.2677 17.3982C97.3353 17.3982 98.1598 17.7456 98.8701 18.4431L99.043 18.2734C98.2866 17.5308 97.4 17.1582 96.2677 17.1582V17.3982ZM93.6652 18.4431C94.3755 17.7456 95.2 17.3982 96.2677 17.3982V17.1582C95.1353 17.1582 94.2487 17.5308 93.4923 18.2734L93.6652 18.4431ZM92.601 20.9982C92.601 19.95 92.9548 19.1405 93.6652 18.4431L93.4923 18.2734C92.736 19.0159 92.3565 19.8864 92.3565 20.9982H92.601ZM93.6652 23.5533C92.9548 22.8559 92.601 22.0465 92.601 20.9982H92.3565C92.3565 22.11 92.736 22.9806 93.4923 23.723L93.6652 23.5533ZM96.2677 24.5982C95.2 24.5982 94.3755 24.2508 93.6652 23.5533L93.4923 23.723C94.2487 24.4656 95.1353 24.8382 96.2677 24.8382V24.5982ZM94.2268 23.1212C94.7343 23.6193 95.4973 23.9964 96.2688 23.9964V23.7564C95.5737 23.7564 94.87 23.4133 94.3997 22.9515L94.2268 23.1212ZM93.3354 20.9963C93.3354 21.8584 93.5871 22.6196 94.2369 23.1301L94.3896 22.9426C93.8172 22.4931 93.5799 21.8143 93.5799 20.9963H93.3354ZM94.2268 18.8715C93.7172 19.3718 93.3354 20.1215 93.3354 20.9963H93.5799C93.5799 20.1911 93.9315 19.5009 94.3997 19.0412L94.2268 18.8715ZM96.2688 17.9963C95.5098 17.9963 94.7362 18.2451 94.2179 18.8814L94.4086 19.0313C94.8681 18.4675 95.5611 18.2363 96.2688 18.2363V17.9963ZM98.3108 18.8715C97.8034 18.3733 97.0403 17.9963 96.2688 17.9963V18.2363C96.964 18.2363 97.6676 18.5794 98.1379 19.0412L98.3108 18.8715ZM99.2021 20.9963C99.2021 20.1342 98.9506 19.3731 98.3007 18.8626L98.148 19.05C98.7204 19.4996 98.9576 20.1784 98.9576 20.9963H99.2021ZM98.3108 23.1212C98.8204 22.6208 99.2021 21.8712 99.2021 20.9963H98.9576C98.9576 21.8016 98.6061 22.4918 98.1379 22.9515L98.3108 23.1212ZM96.2688 23.9964C97.0278 23.9964 97.8014 23.7475 98.3198 23.1112L98.129 22.9614C97.6695 23.5251 96.9764 23.7564 96.2688 23.7564V23.9964Z" fill="white"/>
<path d="M101.402 24.5999V17.3999H102.502L106.046 23.0399V21.5999V17.3999H107.024V24.5999H106.046L102.257 18.7199V20.1599V24.5999H101.402Z" fill="white" stroke="white" stroke-width="0.2"/>
<path fill-rule="evenodd" clip-rule="evenodd" d="M67.2972 36.722V38.882H72.5528C72.4305 40.082 71.9416 41.042 71.3305 41.642C70.5972 42.362 69.375 43.202 67.2972 43.202C63.9972 43.202 61.5528 40.682 61.5528 37.442C61.5528 34.202 64.1194 31.682 67.2972 31.682C69.0083 31.682 70.3528 32.402 71.3305 33.242L72.9194 31.682C71.575 30.482 69.8639 29.522 67.4194 29.522C63.0194 29.522 59.2305 33.122 59.2305 37.442C59.2305 41.762 63.0194 45.362 67.4194 45.362C69.8639 45.362 71.575 44.642 73.0416 43.082C74.5083 41.642 74.9972 39.602 74.9972 38.042C74.9972 37.562 74.9972 37.082 74.875 36.722H67.2972ZM80.8667 35.161C77.9333 35.161 75.6111 37.321 75.6111 40.321C75.6111 43.201 77.9333 45.481 80.8667 45.481C83.8 45.481 86.1222 43.321 86.1222 40.321C86.1222 37.201 83.8 35.161 80.8667 35.161ZM86.974 40.321C86.974 37.321 89.2962 35.161 92.2296 35.161C95.1629 35.161 97.4851 37.201 97.4851 40.321C97.4851 43.321 95.1629 45.481 92.2296 45.481C89.2962 45.481 86.974 43.201 86.974 40.321ZM89.2943 40.2028C89.2943 42.0028 90.6387 43.3228 92.2276 43.3228C93.8165 43.3228 95.1609 42.0028 95.1609 40.2028C95.1609 38.2828 93.8165 37.0828 92.2276 37.0828C90.6387 37.0828 89.2943 38.4028 89.2943 40.2028ZM77.9314 40.2028C77.9314 42.0028 79.2758 43.3228 80.8647 43.3228C82.4536 43.3228 83.798 42.0028 83.798 40.2028C83.798 38.2828 82.4536 37.0828 80.8647 37.0828C79.2758 37.0828 77.9314 38.4028 77.9314 40.2028ZM118.384 35.161C121.073 35.161 122.295 37.201 122.784 38.401L123.029 39.001L116.062 41.881C116.673 42.961 117.406 43.441 118.629 43.441C119.851 43.441 120.584 42.841 121.195 42.001L122.906 43.201C122.417 44.041 120.951 45.481 118.629 45.481C115.695 45.481 113.495 43.201 113.495 40.321C113.495 37.201 115.695 35.161 118.384 35.161ZM115.701 40.0828C115.701 38.1628 117.29 37.0828 118.39 37.0828C119.245 37.0828 120.101 37.5628 120.345 38.1628L115.701 40.0828ZM112.275 45.0001H109.953V30.0001H112.275V45.0001ZM106.283 36.2391C105.672 35.6391 104.694 35.0391 103.472 35.0391C100.905 35.0391 98.4609 37.3191 98.4609 40.1991C98.4609 43.0791 100.783 45.2391 103.472 45.2391C104.694 45.2391 105.672 44.6391 106.161 44.0391H106.283V44.7591C106.283 46.6791 105.183 47.7591 103.472 47.7591C102.128 47.7591 101.15 46.7991 100.905 45.9591L98.9498 46.7991C99.5609 48.1191 101.028 49.7991 103.594 49.7991C106.283 49.7991 108.483 48.2391 108.483 44.5191V35.3991H106.283V36.2391ZM100.662 40.2028C100.662 42.0028 102.006 43.3228 103.595 43.3228C105.184 43.3228 106.406 42.0028 106.406 40.2028C106.406 38.4028 105.184 37.0828 103.595 37.0828C102.006 37.0828 100.662 38.4028 100.662 40.2028ZM133.419 30.0001H127.918V45.0001H130.241V39.3601H133.419C135.985 39.3601 138.43 37.5601 138.43 34.6801C138.43 31.8001 135.985 30.0001 133.419 30.0001ZM130.239 37.1991H133.538C135.127 37.1991 136.105 35.8791 136.227 34.5591C136.227 33.4791 135.249 32.0391 133.538 32.0391H130.239V37.1991ZM147.6 35.0391C145.889 35.0391 144.178 35.7591 143.567 37.3191L145.644 38.1591C146.133 37.3191 146.867 37.0791 147.722 37.0791C148.944 37.0791 150.044 37.7991 150.167 38.9991V39.1191C149.8 38.8791 148.822 38.5191 147.844 38.5191C145.644 38.5191 143.444 39.7191 143.444 41.8791C143.444 43.9191 145.278 45.2391 147.233 45.2391C148.822 45.2391 149.556 44.5191 150.167 43.7991H150.289V44.9991H152.489V39.2391C152.244 36.5991 150.167 35.0391 147.6 35.0391ZM145.521 42.0038C145.521 42.9638 146.621 43.3238 147.354 43.3238C148.577 43.3238 149.799 42.3638 150.043 40.9238C149.982 40.8995 149.921 40.8753 149.861 40.8513C149.328 40.6378 148.844 40.4438 147.965 40.4438C146.865 40.4438 145.521 40.8038 145.521 42.0038ZM160.185 35.4047L157.619 41.8847H157.496L154.807 35.4047H152.363L156.396 44.5247L154.074 49.5647H156.396L162.63 35.4047H160.185ZM141.975 45.0001H139.653V30.0001H141.975V45.0001Z" fill="white"/>
<path d="M21.7091 18C21.3425 18.36 21.0981 18.96 21.0981 19.68V46.2C21.0981 46.92 21.3425 47.52 21.7091 47.88L21.8314 48L36.9869 33.12V33V32.88L21.7091 18Z" fill="url(#paint0_linear_66_192)"/>
<path d="M42.0028 38.1561L36.9917 33.2361V32.9961V32.8761L42.0028 27.9561L42.125 28.0761L48.1139 31.4361C49.825 32.3961 49.825 33.9561 48.1139 34.9161L42.0028 38.1561Z" fill="url(#paint1_linear_66_192)"/>
<path d="M42.1203 38.041L36.9869 33.001L21.7092 48.001C22.3203 48.601 23.1758 48.601 24.2758 48.121L42.1203 38.041Z" fill="url(#paint2_linear_66_192)"/>
<path d="M42.1203 27.9609L24.2758 18.0009C23.1758 17.4009 22.3203 17.5209 21.7092 18.1209L36.9869 33.0009L42.1203 27.9609Z" fill="url(#paint3_linear_66_192)"/>
<path opacity="0.2" d="M41.9981 37.9219L24.2758 47.7619C23.2981 48.3619 22.4425 48.2419 21.8314 47.7619L21.7092 47.8819L21.8314 48.0019C22.4425 48.4819 23.2981 48.6019 24.2758 48.0019L41.9981 37.9219Z" fill="black"/>
<path opacity="0.12" d="M21.7111 47.7625C21.3445 47.4025 21.2222 46.8025 21.2222 46.0825V46.2025C21.2222 46.9225 21.4667 47.5225 21.8333 47.8825V47.7625H21.7111Z" fill="black"/>
<path opacity="0.12" d="M48.1111 34.56L42 37.92L42.1222 38.04L48.1111 34.68C48.9667 34.2 49.3333 33.6 49.3333 33C49.3333 33.6 48.8444 34.08 48.1111 34.56Z" fill="black"/>
<path opacity="0.25" d="M24.2778 18.1204L48.1111 31.4405C48.8445 31.9205 49.3333 32.4005 49.3333 33.0005C49.3333 32.4005 48.9667 31.8005 48.1111 31.3205L24.2778 18.0004C22.5667 17.0404 21.2222 17.8804 21.2222 19.8004V19.9204C21.2222 18.0004 22.5667 17.1604 24.2778 18.1204Z" fill="white"/>
<rect x="0.5" y="0.5" width="182" height="64" rx="9.5" stroke="white"/>
<defs>
<linearGradient id="paint0_linear_66_192" x1="30.3091" y1="0.0873352" x2="6.08801" y2="6.758" gradientUnits="userSpaceOnUse">
<stop stop-color="#00A0FF"/>
<stop offset="0.00657445" stop-color="#00A1FF"/>
<stop offset="0.2601" stop-color="#00BEFF"/>
<stop offset="0.5122" stop-color="#00D2FF"/>
<stop offset="0.7604" stop-color="#00DFFF"/>
<stop offset="1" stop-color="#00E3FF"/>
</linearGradient>
<linearGradient id="paint1_linear_66_192" x1="50.356" y1="20.8397" x2="20.782" y2="20.8397" gradientUnits="userSpaceOnUse">
<stop stop-color="#FFE000"/>
<stop offset="0.4087" stop-color="#FFBD00"/>
<stop offset="0.7754" stop-color="#FFA500"/>
<stop offset="1" stop-color="#FF9C00"/>
</linearGradient>
<linearGradient id="paint2_linear_66_192" x1="21.3215" y1="25.2178" x2="2.33214" y2="57.6893" gradientUnits="userSpaceOnUse">
<stop stop-color="#FF3A44"/>
<stop offset="1" stop-color="#C31162"/>
</linearGradient>
<linearGradient id="paint3_linear_66_192" x1="9.83252" y1="13.8964" x2="18.2441" y2="28.4144" gradientUnits="userSpaceOnUse">
<stop stop-color="#32A071"/>
<stop offset="0.0685" stop-color="#2DA771"/>
<stop offset="0.4762" stop-color="#15CF74"/>
<stop offset="0.8009" stop-color="#06E775"/>
<stop offset="1" stop-color="#00F076"/>
</linearGradient>
</defs>
</svg>
