<svg width="62" height="44" viewBox="0 0 62 44" fill="none" xmlns="http://www.w3.org/2000/svg">
<path d="M18.6 21.7C24.5966 21.7 29.45 16.8466 29.45 10.85C29.45 4.85344 24.5966 0 18.6 0C12.6034 0 7.75 4.85344 7.75 10.85C7.75 16.8466 12.6034 21.7 18.6 21.7ZM26.04 24.8H25.2359C23.2209 25.7687 20.9831 26.35 18.6 26.35C16.2169 26.35 13.9887 25.7687 11.9641 24.8H11.16C4.99875 24.8 0 29.7987 0 35.96V38.75C0 41.3172 2.08281 43.4 4.65 43.4H32.55C35.1172 43.4 37.2 41.3172 37.2 38.75V35.96C37.2 29.7987 32.2012 24.8 26.04 24.8ZM46.5 21.7C51.6344 21.7 55.8 17.5344 55.8 12.4C55.8 7.26562 51.6344 3.1 46.5 3.1C41.3656 3.1 37.2 7.26562 37.2 12.4C37.2 17.5344 41.3656 21.7 46.5 21.7ZM51.15 24.8H50.7819C49.4353 25.265 48.0112 25.575 46.5 25.575C44.9888 25.575 43.5647 25.265 42.2181 24.8H41.85C39.8737 24.8 38.0525 25.3716 36.4541 26.2919C38.8178 28.8397 40.3 32.2206 40.3 35.96V39.68C40.3 39.8931 40.2516 40.0965 40.2419 40.3H57.35C59.9172 40.3 62 38.2172 62 35.65C62 29.6534 57.1466 24.8 51.15 24.8Z" fill="#230F0F"/>
</svg>
